<mxfile host="app.diagrams.net" modified="2020-11-30T08:04:43.145Z" agent="5.0 (Windows NT 10.0; Win64; x64) AppleWebKit/537.36 (KHTML, like Gecko) Chrome/86.0.4240.198 Safari/537.36" etag="rqEO47qbDRdpMYma4vzz" version="13.10.1" type="github">
  <diagram id="bvnqyPXvRYH4Tg_kPuXH" name="Page-1">
    <mxGraphModel dx="1026" dy="742" grid="1" gridSize="10" guides="1" tooltips="1" connect="1" arrows="1" fold="1" page="1" pageScale="1" pageWidth="827" pageHeight="1169" math="0" shadow="0">
      <root>
        <mxCell id="0" />
        <mxCell id="1" parent="0" />
        <mxCell id="ID-CcuY_OrSWUhiPE8Nc-2" value="后端数据接口" style="rounded=0;whiteSpace=wrap;html=1;" vertex="1" parent="1">
          <mxGeometry x="180" y="140" width="120" height="60" as="geometry" />
        </mxCell>
        <mxCell id="ID-CcuY_OrSWUhiPE8Nc-3" value="转换器" style="shape=parallelogram;perimeter=parallelogramPerimeter;whiteSpace=wrap;html=1;fixedSize=1;" vertex="1" parent="1">
          <mxGeometry x="180" y="260" width="120" height="60" as="geometry" />
        </mxCell>
        <mxCell id="ID-CcuY_OrSWUhiPE8Nc-4" value="前端 Card数据" style="rounded=0;whiteSpace=wrap;html=1;" vertex="1" parent="1">
          <mxGeometry x="180" y="370" width="120" height="60" as="geometry" />
        </mxCell>
        <mxCell id="ID-CcuY_OrSWUhiPE8Nc-5" value="业务组件1" style="triangle;whiteSpace=wrap;html=1;direction=north;" vertex="1" parent="1">
          <mxGeometry x="50" y="490" width="150" height="85" as="geometry" />
        </mxCell>
        <mxCell id="ID-CcuY_OrSWUhiPE8Nc-6" value="业务组件2" style="triangle;whiteSpace=wrap;html=1;direction=north;" vertex="1" parent="1">
          <mxGeometry x="230" y="490" width="150" height="85" as="geometry" />
        </mxCell>
        <mxCell id="ID-CcuY_OrSWUhiPE8Nc-7" value="业务组件N" style="triangle;whiteSpace=wrap;html=1;direction=north;" vertex="1" parent="1">
          <mxGeometry x="414" y="490" width="150" height="85" as="geometry" />
        </mxCell>
      </root>
    </mxGraphModel>
  </diagram>
</mxfile>
